<svg width="181" height="67" viewBox="0 0 181 67" fill="none" xmlns="http://www.w3.org/2000/svg">
<path d="M15.6793 24.1264C17.604 24.1264 19.3215 24.5261 20.8317 25.3256C22.3715 26.1252 23.5707 27.3096 24.4294 28.879C25.2882 30.4484 25.7175 32.3436 25.7175 34.5644V49H20.6984V35.3195C20.6984 33.1283 20.1506 31.4552 19.055 30.3004C17.9593 29.1159 16.464 28.5237 14.5688 28.5237C12.6737 28.5237 11.1635 29.1159 10.0383 30.3004C8.94266 31.4552 8.39485 33.1283 8.39485 35.3195V49H3.33129V24.5261H8.39485V27.3244C9.22397 26.3176 10.2752 25.5329 11.5485 24.9703C12.8514 24.4077 14.2283 24.1264 15.6793 24.1264ZM54.3406 24.5261V49H49.277V46.1129C48.4775 47.1197 47.4263 47.9192 46.1234 48.5114C44.8501 49.074 43.488 49.3553 42.037 49.3553C40.1123 49.3553 38.38 48.9556 36.8402 48.1561C35.33 47.3566 34.1308 46.1721 33.2424 44.6027C32.3837 43.0333 31.9543 41.1382 31.9543 38.9173V24.5261H36.9735V38.1622C36.9735 40.3535 37.5213 42.0413 38.6169 43.2258C39.7125 44.3806 41.2079 44.958 43.1031 44.958C44.9982 44.958 46.4936 44.3806 47.5892 43.2258C48.7144 42.0413 49.277 40.3535 49.277 38.1622V24.5261H54.3406ZM70.4824 44.4694L77.4115 24.5261H82.786L73.4584 49H67.4176L58.1345 24.5261H63.5533L70.4824 44.4694ZM97.2292 49.3998C94.9195 49.3998 92.8319 48.8816 90.9664 47.8452C89.1009 46.7791 87.6351 45.2986 86.5691 43.4034C85.5031 41.4787 84.9701 39.2578 84.9701 36.7409C84.9701 34.2535 85.5179 32.0474 86.6135 30.1227C87.7091 28.198 89.2045 26.7174 91.0996 25.681C92.9948 24.6446 95.112 24.1264 97.4513 24.1264C99.7906 24.1264 101.908 24.6446 103.803 25.681C105.698 26.7174 107.193 28.198 108.289 30.1227C109.385 32.0474 109.933 34.2535 109.933 36.7409C109.933 39.2282 109.37 41.4343 108.245 43.359C107.119 45.2838 105.58 46.7791 103.625 47.8452C101.701 48.8816 99.5685 49.3998 97.2292 49.3998ZM97.2292 45.0025C98.5321 45.0025 99.7462 44.6915 100.871 44.0697C102.026 43.4479 102.959 42.5151 103.67 41.2714C104.38 40.0277 104.736 38.5175 104.736 36.7409C104.736 34.9642 104.395 33.4688 103.714 32.2547C103.033 31.011 102.13 30.0783 101.005 29.4564C99.8794 28.8346 98.6654 28.5237 97.3625 28.5237C96.0596 28.5237 94.8455 28.8346 93.7202 29.4564C92.6246 30.0783 91.7511 31.011 91.0996 32.2547C90.4482 33.4688 90.1225 34.9642 90.1225 36.7409C90.1225 39.3763 90.7887 41.4195 92.1212 42.8704C93.4834 44.2918 95.186 45.0025 97.2292 45.0025ZM123.822 49.3998C121.897 49.3998 120.165 49.0592 118.625 48.3782C117.115 47.6675 115.915 46.7199 115.027 45.5355C114.139 44.3214 113.665 42.9741 113.606 41.4935H118.847C118.936 42.5299 119.424 43.4034 120.313 44.1141C121.231 44.7952 122.371 45.1357 123.733 45.1357C125.154 45.1357 126.25 44.8692 127.02 44.3362C127.819 43.7736 128.219 43.0629 128.219 42.2042C128.219 41.2862 127.775 40.6052 126.886 40.161C126.028 39.7168 124.651 39.2282 122.756 38.6952C120.92 38.1918 119.424 37.7032 118.269 37.2294C117.115 36.7557 116.108 36.0302 115.249 35.053C114.42 34.0758 114.005 32.7877 114.005 31.1887C114.005 29.8858 114.39 28.7013 115.16 27.6353C115.93 26.5397 117.026 25.681 118.447 25.0591C119.898 24.4373 121.556 24.1264 123.422 24.1264C126.205 24.1264 128.441 24.8371 130.129 26.2584C131.846 27.6501 132.764 29.5601 132.883 31.9882H127.819C127.73 30.8926 127.286 30.0191 126.487 29.3676C125.687 28.7162 124.606 28.3904 123.244 28.3904C121.912 28.3904 120.89 28.6421 120.179 29.1455C119.469 29.6489 119.113 30.3152 119.113 31.1443C119.113 31.7957 119.35 32.3436 119.824 32.7877C120.298 33.2319 120.875 33.5872 121.556 33.8537C122.237 34.0906 123.244 34.4016 124.577 34.7865C126.353 35.2603 127.804 35.7489 128.93 36.2523C130.084 36.7261 131.076 37.4367 131.905 38.3843C132.735 39.3319 133.164 40.5903 133.194 42.1598C133.194 43.5515 132.809 44.7952 132.039 45.8908C131.269 46.9864 130.173 47.8452 128.752 48.467C127.36 49.0888 125.717 49.3998 123.822 49.3998ZM136.977 36.652C136.977 34.1943 137.48 32.0178 138.487 30.1227C139.524 28.2276 140.915 26.7618 142.662 25.7254C144.439 24.6594 146.393 24.1264 148.525 24.1264C150.45 24.1264 152.123 24.5113 153.545 25.2812C154.996 26.0215 156.15 26.9543 157.009 28.0795V24.5261H162.117V49H157.009V45.3578C156.15 46.5126 154.981 47.475 153.5 48.2449C152.02 49.0148 150.332 49.3998 148.437 49.3998C146.334 49.3998 144.409 48.8667 142.662 47.8007C140.915 46.7051 139.524 45.1949 138.487 43.2702C137.48 41.3158 136.977 39.1098 136.977 36.652ZM157.009 36.7409C157.009 35.053 156.654 33.5872 155.943 32.3436C155.262 31.0999 154.359 30.1523 153.234 29.5009C152.108 28.8494 150.894 28.5237 149.592 28.5237C148.289 28.5237 147.075 28.8494 145.949 29.5009C144.824 30.1227 143.906 31.0555 143.195 32.2991C142.514 33.5132 142.174 34.9642 142.174 36.652C142.174 38.3399 142.514 39.8204 143.195 41.0937C143.906 42.367 144.824 43.3442 145.949 44.0253C147.104 44.6767 148.318 45.0025 149.592 45.0025C150.894 45.0025 152.108 44.6767 153.234 44.0253C154.359 43.3738 155.262 42.4263 155.943 41.1826C156.654 39.9093 157.009 38.4287 157.009 36.7409Z" fill="#212528"/>
<circle cx="174.892" cy="37.1992" r="6.10736" fill="#BC424E"/>
</svg>
